<svg id="visual" viewBox="0 0 900 600" width="900" height="600" xmlns="http://www.w3.org/2000/svg" xmlns:xlink="http://www.w3.org/1999/xlink" version="1.1"><g transform="translate(-60.50386427373297 -209.36636784609118)"><path d="M275.1 -217.8C402 -221.4 581.6 -177.8 610.1 -95.8C638.6 -13.8 515.9 106.6 440.3 269.9C364.7 433.2 336.3 639.5 220.2 740.6C104.1 841.7 -99.6 837.6 -177.8 712.1C-255.9 586.7 -208.5 339.8 -250.4 184.6C-292.2 29.4 -423.3 -34.2 -471.6 -139.2C-519.8 -244.2 -485.2 -390.6 -392.8 -393C-300.4 -395.5 -150.2 -254 -38 -208.7C74.1 -163.4 148.3 -214.2 275.1 -217.8" fill="#FFFFFF"></path></g></svg>