<svg id="visual" viewBox="0 0 1300 740" width="1300" height="740" xmlns="http://www.w3.org/2000/svg" xmlns:xlink="http://www.w3.org/1999/xlink" version="1.1"><g transform="translate(278.2386231167144 -28.6476314731039)"><path d="M226.7 -337.2C274.8 -365 281.6 -265.7 296.9 -188.4C312.3 -111 336.1 -55.5 306.3 -17.3C276.4 21 192.7 42 175.7 116.5C158.7 191 208.4 318.9 190.2 453.9C172 588.9 86 731 -28.9 781C-143.8 831.1 -287.7 789.3 -328.9 667.6C-370.2 545.9 -309 344.5 -395 219.9C-481.1 95.3 -714.6 47.7 -814.3 -57.6C-914 -162.8 -880.1 -325.7 -814.6 -485.9C-749.1 -646.1 -652 -803.7 -511 -722.3C-370 -640.9 -185 -320.4 -47.8 -237.6C89.3 -154.7 178.7 -309.5 226.7 -337.2" fill="#FFFFFF"></path></g></svg>